<?xml version="1.0" encoding="UTF-8"?>
<svg id="a" data-name="Layer_1" xmlns="http://www.w3.org/2000/svg" viewBox="0 0 1920 1080">
  <defs>
    <style>
      .b {
        fill: #fff;
      }

      .c {
        fill: #21296b;
      }

      .d {
        fill: #a7d2ff;
      }

      .e {
        fill: #0044b5;
      }
    </style>
  </defs>
  <path class="d" d="M623-293c-459.5,0-832,372.5-832,832s372.5,832,832,832c57.17,0,112.99-5.77,166.91-16.74,3.52-.72,7.03-1.46,10.54-2.22,241.13-52.39,443.27-209.32,556.55-420.95,1.7-3.16,3.37-6.34,5.02-9.53,59.41-114.53,92.98-244.62,92.98-382.56,0-459.5-372.5-832-832-832ZM805.83,1344.18c130.7-189.24,320.22-334.74,542.15-410.08-111.92,204.93-308.19,357.18-542.15,410.08Z"/>
  <path class="e" d="M1695.5,869.5c-116.33,0-228.39,18.25-333.48,52.06-2.95.95-5.9,1.91-8.84,2.88-229.34,75.96-424.84,226.14-558.06,422.09-1.75,2.57-3.49,5.15-5.21,7.73-115.24,172.65-182.41,380.1-182.41,603.24,0,600.89,487.11,1088,1088,1088s1088-487.11,1088-1088-487.11-1088-1088-1088ZM1347.98,934.1c-111.92,204.93-308.19,357.18-542.15,410.08,130.7-189.24,320.22-334.74,542.15-410.08Z"/>
  <path class="b" d="M2776,1957.5c0,596.74-483.76,1080.5-1080.5,1080.5s-1080.5-483.76-1080.5-1080.5c0-224.36,68.38-432.75,185.45-605.46,1.78-2.63,3.57-5.25,5.38-7.86,233.96-52.9,430.23-205.15,542.15-410.08,3-1.02,6-2.02,9.02-3.01,106.47-35.1,220.27-54.09,338.5-54.09,596.74,0,1080.5,483.76,1080.5,1080.5Z"/>
  <path class="b" d="M1448.5,539c0,139.22-34.46,270.39-95.32,385.44-1.71,3.23-3.44,6.45-5.2,9.66-221.93,75.34-411.45,220.84-542.15,410.08-3.56.81-7.13,1.59-10.71,2.35-55.52,11.77-113.09,17.97-172.12,17.97-455.91,0-825.5-369.59-825.5-825.5S167.09-286.5,623-286.5s825.5,369.59,825.5,825.5Z"/>
  <path class="c" d="M1362,922c-122.71,221.58-329.93,382.15-572,432,141.37-203.64,341.41-357.02,572-432Z"/>
</svg>