<?xml version="1.0" encoding="UTF-8"?>
<svg id="Layer_1" xmlns="http://www.w3.org/2000/svg" viewBox="0 0 1920 1920">
  <defs>
    <style>
      .cls-1 {
        fill: #fff;
      }

      .cls-2 {
        fill: #646567;
      }

      .cls-3 {
        fill: #9e9e9e;
      }

      .cls-4 {
        fill: #ccc;
      }
    </style>
  </defs>
  <circle class="cls-1" cx="866.38" cy="890.9" r=".31"/>
  <g id="Layer_1-2">
    <g>
      <path class="cls-2" d="M957.56,1218.41c-62.37-.54-117.09-21.35-164.35-61.95-21.83-18.75-39.94-40.57-54.25-65.53-3.41-5.94-3.06-7.36,2.95-10.51,18.88-9.88,37.59-20.13,56.75-29.44,30.46-14.81,61.35-13.28,92.18-.74,11.7,4.75,22.56,10.97,33.04,17.97,10.06,6.72,20.22,13.31,30.6,19.52,10.36,6.19,22.35,7.65,33.81,10.65,14.22,3.73,28.13,8.35,39.45,18.32,13.11,11.57,11.69,31.09-2.9,40.17-7.17,4.46-15.16,4.47-23.15,3.41-14.77-1.97-28.4-7.67-42.1-13.17-16.88-6.78-33.74-13.64-50.82-19.87-5.63-2.05-11.91-2.44-17.93-3.3-2.14-.31-4.65.06-5.22,2.84-.59,2.85,1.42,4.3,3.71,5.07,8.4,2.82,17.05,5.02,25.25,8.33,15.8,6.38,31.29,13.52,47.03,20.04,13.66,5.66,27.72,10.15,42.49,11.81,12.25,1.37,23.42-1.1,32.53-10.08.87-.85,2.05-1.47,3.19-1.97,36.55-16.01,66.15-40.42,88.74-73.28,6.99-10.18,16.61-13.94,28.48-11.95,13.29,2.22,18.71,14.64,11.61,26.15-8.39,13.59-18.05,26.24-28.98,37.87-34.83,37.04-76.9,61.67-126.48,73.32-18.28,4.29-36.82,6.34-55.62,6.31h0Z"/>
      <path class="cls-4" d="M711.15,971.17c1.1-65.85,22.35-121.97,65.5-169.37,34.85-38.28,77.63-63.85,128.27-74.75,79.11-17.03,150.82-.14,213.56,51.11,43.71,35.7,71.67,81.76,84.09,136.82,11.51,51.08,7,101.01-12.67,149.56-.52,1.28-1.06,2.57-1.79,3.73-1.33,2.11-3.16,2.91-5.62,1.84-9.72-4.25-19.47-8.41-29.15-12.74-3.21-1.43-3.57-3.19-1.9-7.2,5.84-14.1,10.4-28.6,12.9-43.65,10.53-63.35-4.13-120.29-45-169.85-32.27-39.13-73.9-63.74-124.01-71.65-74.55-11.78-138.19,10.56-189.63,65.85-26.73,28.73-43.1,63.04-50.06,101.61-6.6,36.61-3.59,72.57,9.09,107.62,2.11,5.83,1.91,6.31-3.71,8.91-8.79,4.06-17.58,8.14-26.36,12.19-3.98,1.84-5.25,1.38-6.82-2.73-8.23-21.54-13.59-43.76-15.42-66.78-.59-7.47-.92-14.96-1.27-20.53h0Z"/>
      <path class="cls-4" d="M956.84,777.97c92.23.05,170.55,62.43,189.87,148.77,8.94,39.98,5.66,79.03-10.18,116.91-2.07,4.96-2.94,5.28-7.78,3.13-4.43-1.97-8.84-3.95-13.26-5.94-3.73-1.67-4.13-2.59-2.52-6.4,6.14-14.52,10.25-29.58,12.02-45.26,4.47-39.64-3.71-76.51-25.57-109.87-26.45-40.34-63.64-65.9-111.36-73.36-64.98-10.16-118.65,11.45-159.88,62.66-18.79,23.33-29.37,50.5-33.11,80.17-3.23,25.55-.62,50.62,7.8,75.02,1.6,4.62,1.39,5.17-2.92,7.21-4.59,2.17-9.16,4.35-13.77,6.48-3.7,1.71-4.66,1.3-6.13-2.68-5.53-15-9.13-30.46-10.65-46.36-3.16-33.01,1.28-65.03,15.08-95.24,27.33-59.8,73.33-96.98,137.62-111.32,5.39-1.2,10.89-2.06,16.39-2.63,7.23-.75,14.5-1.04,18.33-1.3h0Z"/>
      <path class="cls-4" d="M1109.88,969.88c-.15,19.76-4.1,38.69-11.56,56.93-1.97,4.82-2.97,5.19-7.84,3.1-2.97-1.27-5.91-2.61-8.9-3.8-3.15-1.25-3.28-3.26-2.09-6.09,4.22-10.02,7.22-20.39,8.73-31.19,4.89-34.97-2.62-67.01-23.41-95.55-20.47-28.1-48.16-45.18-82.36-51.62-60.09-11.31-122.72,24.48-143.85,82.15-10.4,28.38-11.1,56.99-2,85.8.93,2.97.24,4.56-2.47,5.73-3.38,1.46-6.68,3.12-10.05,4.63-3.44,1.54-4.57,1.04-5.85-2.71-3.96-11.62-6.46-23.57-7.31-35.8-2.86-40.76,8.51-77.14,34.86-108.41,24.47-29.04,55.78-46.74,93.51-51.62,52.23-6.74,96.6,9.65,132.19,48.38,21.97,23.9,34.24,52.49,37.41,84.87.49,5.05.67,10.11,1,15.18h0Z"/>
      <path class="cls-3" d="M917.84,1084.02c0-8.19-.22-16.38.06-24.56.39-11.27-4.12-20.46-11.76-28.19-17.35-17.57-34.93-34.91-52.41-52.36-6-5.98-6.01-10.66-.06-16.56,2.54-2.52,5.08-5.04,7.63-7.55,5.09-5.01,10.03-5.06,15.06-.04,16.01,15.98,32.25,31.73,47.87,48.08,7.17,7.51,18.15,7.72,25.52.06,15.52-16.12,31.54-31.77,47.37-47.6,5.71-5.72,10.38-5.74,16.05-.09,2.62,2.61,5.24,5.21,7.84,7.82,4.94,4.97,4.97,10.14.04,15.08-17.13,17.14-34.25,34.29-51.45,51.37-9,8.94-14.05,19.19-13.6,32.33.57,16.6.15,33.22.13,49.82,0,7.29-3.49,10.79-10.8,10.84-5.54.03-11.09.03-16.62,0-7.43-.04-10.84-3.4-10.85-10.75-.03-9.23,0-18.45,0-27.68h0Z"/>
      <path class="cls-2" d="M1047.45,1143.46c2.27-11.73-.52-21.82-8.06-30.91,2.09-1.35,4.05-2.64,6.04-3.91,16.68-10.57,30.75-23.83,42.01-40.1,6.68-9.64,17.52-13.52,27.39-9.68,2.76,1.07,5.39,3.15,7.33,5.42,3.28,3.82,3.13,6.43.42,10.66-18.19,28.32-42.08,50.56-71.58,66.79-.99.55-2.03.99-3.56,1.73h0Z"/>
      <path class="cls-3" d="M960.17,915.52c-14.7,0-26.64-11.88-26.65-26.52-.02-14.83,12.02-26.84,26.81-26.76,14.56.07,26.53,12.16,26.52,26.75-.02,14.58-12.03,26.53-26.67,26.54h0Z"/>
      <path class="cls-2" d="M1003.17,1092.26c19.04-7.38,33.94-19.87,45.47-36.76,5.56-8.14,13.3-13.1,23.78-11.88,1.79.21,3.62.75,5.27,1.51,6.54,3.01,7.49,6.52,3.43,12.43-12.66,18.44-28.59,33.4-47.66,45.09-2.37,1.45-3.98,1.21-6.44.03-7.77-3.72-15.78-6.93-23.84-10.41h0Z"/>
      <path class="cls-2" d="M968.05,1081.37c1.89-1.34,3.69-2.54,5.41-3.86,12.34-9.49,24.6-19.09,37.02-28.48,5.04-3.81,10.11-7.9,16.77-8.37,2.55-.18,5.37.19,7.72,1.16,6.16,2.51,7.29,6.95,3.43,12.28-7.66,10.57-18.05,18.08-28.91,24.92-4.96,3.12-10.34,5.55-15.58,8.18-1.21.61-2.79,1.31-3.97,1.02-7.12-1.77-14.17-3.8-21.25-5.77-.16-.05-.23-.36-.65-1.04v-.02h0Z"/>
    </g>
  </g>
  <rect class="cls-1" x="936.25" y="615.37" width="47.07" height="700.6" rx="11.56" ry="11.56" transform="translate(-401.72 961.51) rotate(-45)"/>
  <rect class="cls-3" x="939.84" y="666.41" width="40.19" height="598.23" rx="9.87" ry="9.87" transform="translate(-401.57 961.57) rotate(-45)"/>
</svg>