<?xml version="1.0" encoding="UTF-8"?>
<svg id="Layer_1" xmlns="http://www.w3.org/2000/svg" viewBox="0 0 505.0155 445">
  <path d="M477.7442,192.2745H101.2732L243.2081,50.3397c11.5159-11.5159,11.5159-30.1868,0-41.7027h0c-11.5159-11.5159-30.1868-11.5159-41.7027,0L14.1841,195.9582c-6.7224,3.9077-11.6193,10.602-13.1099,18.5045-2.1282,7.68-1.095,16.0497,3.1073,23.0541.0793.1355.1634.2688.2451.4033.1659.2784.3392.5515.5146.8234.0331.0508.0645.1022.098.1528.9396,1.4348,2.0106,2.7744,3.1962,4.0042.1858.1961.3663.3953.5585.5875l192.8752,192.8751c11.5159,11.5159,30.1868,11.5159,41.7027,0h0c11.5159-11.5159,11.5159-30.1868,0-41.7028L99.9626,251.2511h377.7816c15.0615,0,27.2712-12.2098,27.2712-27.2713v-4.434c0-15.0615-12.2097-27.2713-27.2712-27.2713Z" style="fill: #0044b5;"/>
</svg>