<?xml version="1.0" encoding="UTF-8"?>
<svg id="Layer_2" xmlns="http://www.w3.org/2000/svg" viewBox="0 0 270 436.58">
  <defs>
    <style>
      .cls-1 {
        fill: #21296b;
        opacity: .7;
      }
    </style>
  </defs>
  <g id="Layer_1-2" data-name="Layer_1">
    <path class="cls-1" d="M268.86,212.8c-.03-.08-.07-.17-.11-.24-.12-.28-.25-.55-.39-.82-.13-.24-.26-.48-.4-.72-.07-.11-.14-.22-.22-.34-.58-.91-1.25-1.77-2.07-2.55l-.44-.42L68.6,4.29c-5.4-5.59-14.32-5.74-19.92-.34L4.41,46.76c-5.59,5.4-5.75,14.32-.34,19.92l136.46,141.17s.09.08.13.12l.99,1.04c2.17,2.47,3.48,5.69,3.48,9.23,0,3.46-1.25,6.62-3.34,9.07l-1.26,1.32s-.04.03-.06.05L3.94,369.92c-5.39,5.57-5.24,14.45.34,19.83l44.36,42.88c5.57,5.39,14.45,5.24,19.83-.33l194.15-200.85,3.1-2.99c4.32-4.18,5.38-10.45,3.14-15.67Z"/>
  </g>
</svg>