<?xml version="1.0" encoding="UTF-8"?>
<svg id="Layer_1" xmlns="http://www.w3.org/2000/svg" viewBox="0 0 363 363">
  <defs>
    <style>
      .cls-1 {
        fill: #fff;
      }

      .cls-2 {
        fill: #5082f0;
      }
    </style>
  </defs>
  <g>
    <path class="cls-2" d="M181.5,361C82.52,361,2,280.48,2,181.5S82.52,2,181.5,2s179.5,80.52,179.5,179.5-80.52,179.5-179.5,179.5Z"/>
    <path class="cls-2" d="M181.5,4c47.41,0,91.99,18.46,125.51,51.99,33.53,33.53,51.99,78.1,51.99,125.51s-18.46,91.99-51.99,125.51c-33.53,33.53-78.1,51.99-125.51,51.99s-91.99-18.46-125.51-51.99C22.46,273.49,4,228.91,4,181.5S22.46,89.51,55.99,55.99,134.09,4,181.5,4M181.5,0C81.26,0,0,81.26,0,181.5s81.26,181.5,181.5,181.5,181.5-81.26,181.5-181.5S281.74,0,181.5,0h0Z"/>
  </g>
  <circle class="cls-1" cx="180.87" cy="181.15" r="145.2"/>
</svg>