<?xml version="1.0" encoding="UTF-8"?>
<svg id="Layer_1" xmlns="http://www.w3.org/2000/svg" viewBox="0 0 400 399.9998">
  <path d="M390.1627,342.3281l-142.4961-142.4961L389.827,57.672c13.1164-13.1164,13.1164-34.3822,0-47.4986h0c-13.1163-13.1164-34.3822-13.1165-47.4985,0l-142.1604,142.1601L57.6719,9.8373C44.5555-3.2791,23.2897-3.2791,10.1733,9.8373h0c-13.1164,13.1165-13.1164,34.3823,0,47.4987l142.4961,142.496L9.8373,342.6639c-13.1164,13.1164-13.1164,34.3822,0,47.4986h0c13.1164,13.1165,34.3822,13.1165,47.4986,0l142.8321-142.8319,142.4961,142.4961c13.1163,13.1164,34.3822,13.1164,47.4986,0h0c13.1163-13.1164,13.1163-34.3823,0-47.4986Z" style="fill: #0044b5;"/>
</svg>