<?xml version="1.0" encoding="UTF-8"?>
<svg id="Layer_1" xmlns="http://www.w3.org/2000/svg" width="246" height="85.8661" viewBox="0 0 246 85.8661">
  <path d="M108.2187,41.9433c0,4.3081-2.7132,5.9038-6.9413,5.9038h-.1594c-4.2284,0-6.9409-1.5556-6.9409-5.9038v-22.3383h4.6273v21.6203c0,1.9945.8777,2.5531,2.3933,2.5531s2.3933-.5586,2.3933-2.5531v-21.6203h4.6276s0,22.3383,0,22.3383Z" fill="#0044b5"/>
  <path d="M112.3278,47.528v-27.923h4.6269l5.8641,17.2725v-17.2725h4.2281v27.923h-4.3878l-6.1032-18.1499v18.1499h-4.2281,0Z" fill="#0044b5"/>
  <path d="M131.3158,47.528v-27.923h4.6273v27.923h-4.6273Z" fill="#0044b5"/>
  <path d="M153.0558,23.6737h-4.6673v23.8543h-4.6269v-23.8543h-4.6673v-4.0687h13.9611v4.0687h.0004Z" fill="#0044b5"/>
  <path d="M155.5972,47.528v-27.923h12.2461v4.0687h-7.6192v7.6588h6.3823v4.0687h-6.3823v8.0577h7.7389v4.0687h-12.3658v.0004h0Z" fill="#0044b5"/>
  <path d="M185.0603,25.5089v16.1157c0,4.2284-2.7925,5.9038-7.0206,5.9038h-7.1403v-27.9234h7.1403c4.2281,0,7.0206,1.6754,7.0206,5.9038h0ZM177.88,23.6737h-2.354v19.7856h2.354c1.5156,0,2.5531-.5586,2.5531-2.5531v-14.6794c0-1.9945-1.0375-2.5531-2.5531-2.5531h0Z" fill="#0044b5"/>
  <path d="M211.0511,47.7875h-4.3482l-3.5898-19.1473-3.5905,19.1473h-4.5075l-4.3878-27.923h4.5476l2.3136,19.945,3.5902-19.945h4.1487l3.5898,19.945,2.3133-19.945h4.3085l-4.3882,27.923h.0004,0Z" fill="#0044b5"/>
  <path d="M225.496,41.5646h-5.1058l-.9974,6.2229h-4.4675l5.1858-27.923h5.8241l5.2648,27.923h-4.7066l-.9974-6.2229h0ZM224.8978,37.7354l-1.9548-12.4058-1.9548,12.4058h3.9097,0Z" fill="#0044b5"/>
  <path d="M240.3756,47.7875h-4.6276v-9.9328l-5.6239-17.9901h4.8663l3.1117,12.9644,3.1113-12.9644h4.7866l-5.6239,17.9901v9.9328s-.0004,0-.0004,0Z" fill="#0044b5"/>
  <g>
    <path d="M85.8635,42.9306c0,23.7036-19.2372,42.9355-42.9332,42.9355S0,66.6342,0,42.9306,19.2032,0,42.9306,0s42.9333,19.2202,42.9333,42.9306" fill="#fff"/>
    <path d="M20.7555,51.2345c.4347-.2058,1.4401-.6507,1.8854-.8686.517-.2629.4453-.4755.2904-.8951-.6757-2.0519-1.0103-4.2288-1.0103-6.4832,0-11.5961,9.4301-21.0323,21.0312-21.0323s20.9881,9.4362,20.9881,21.0323c0,2.9632-.6235,5.812-1.7305,8.3609-.1016.1805-.1159.5427.1888.7025.3437.145,1.6183.7187,1.9907.8634.3803.1499.6133.0619.8112-.3358,1.2709-2.9583,1.9764-6.1897,1.9764-9.5914,0-13.3904-10.86-24.2595-24.2248-24.2595s-24.2471,10.8691-24.2471,24.2595c0,2.7457.4558,5.3671,1.2928,7.833.1186.3728.3214.6152.7576.4136" fill="#ffba00"/>
    <path d="M14.6039,54.0894c.4921-.2595,2.2264-1.0397,2.6822-1.2728.4751-.1968.3645-.5948.2863-.7754-1.0103-2.8333-1.5609-5.8626-1.5609-9.0532,0-14.8698,12.0761-26.9372,26.9406-26.9372s26.8964,12.0674,26.8964,26.9372c0,3.8058-.7837,7.4202-2.2237,10.7021-.0729.1715-.2005.5797.258.7501.4086.1866,2.3461,1.0499,2.7015,1.2101.3803.1548.6186.0876.8097-.3573,1.6497-3.7639,2.5519-7.9357,2.5519-12.305,0-17.1079-13.8988-31.0376-30.9938-31.0376s-31.0395,13.9298-31.0395,31.0376c0,3.7643.6874,7.3779,1.9284,10.7286.0729.2058.2304.6152.7629.3728" fill="#ffba00"/>
    <path d="M6.2214,57.9462c.6001-.2999,4.2469-1.9854,4.8773-2.2653.6613-.2836.3724-.7806.2814-1.0541-1.3502-3.6355-2.087-7.5542-2.087-11.6388,0-18.5767,15.0873-33.6685,33.6591-33.6685s33.6187,15.0919,33.6187,33.6685c0,4.6949-.9778,9.1567-2.7068,13.2303-.1197.2481-.2383.7399.3803,1.0084.5729.2644,4.1246,1.8253,4.6129,2.0172.4751.233.8449.1805,1.1678-.5272,2.0534-4.855,3.1808-10.176,3.1808-15.7286,0-22.2314-18.0585-40.3299-40.2536-40.3299S2.6581,20.7566,2.6581,42.988c0,5.1141.9544,9.994,2.7004,14.4827.0925.2527.2734.7282.8634.4755" fill="#ffba00"/>
    <path d="M43.0027,34.2388c2.3695,0,4.3285-1.925,4.3285-4.3119,0-2.4115-1.959-4.3319-4.3285-4.3319-2.4115,0-4.3168,1.9205-4.3168,4.3319,0,2.3869,1.9057,4.3119,4.3168,4.3119" fill="#fd372c"/>
    <path d="M44.5878,56.8672c.8343,0,1.5107-.6832,1.5107-1.5269v-9.4766c.0457-1.201.8966-2.743,1.7335-3.6385l8.9244-8.918c.6035-.6001.6035-1.5938,0-2.1735l-1.6282-1.6248c-.5877-.6058-1.5745-.6058-2.1637,0l-8.0513,8.0686c-.554.5227-.9268.8486-1.9107.8486-1.0088,0-1.3974-.3259-1.9148-.8486l-8.0641-8.0686c-.6115-.6058-1.5707-.6058-2.1558,0l-1.641,1.6248c-.5982.5797-.5982,1.5734,0,2.1735l8.9377,8.918c.8445.8955,1.6735,2.4379,1.7139,3.6385v9.4766c0,.8437.6828,1.5269,1.5277,1.5269h3.1815" fill="#fd372c"/>
    <g>
      <g>
        <path d="M50.2696,62.9103c.9004.2878,1.8948.6462,2.9919,1.1138.5472.2334,1.048.5053,1.5001.8094,3.4383-1.9503,6.3612-4.7039,8.5094-8.0071.2062-.3172.1673-.7342-.0838-1.0171-.7712-.8686-2.4269-1.2142-3.9373-.2991l-.0117.0072c-.6621.3969-1.2131.9483-1.6395,1.5911-.3478.5246-.7312,1.0314-1.1489,1.516-1.6908,1.9616-3.8126,3.4183-6.1799,4.2858h-.0004Z" fill="#0044b5"/>
        <path d="M56.2334,66.1239c1.2592,1.4514,1.7339,3.259,1.2803,5.0382,5.0782-2.6139,9.3554-6.5704,12.3477-11.4046.1118-.1809.1548-.4.1118-.6081-.3384-1.6361-2.5406-2.6154-4.9007-1.2626-.0015.0008-.003.0015-.0045.0026-.6326.4774-.9646.9937-1.1644,1.2784-2.1308,3.0407-4.4762,5.0397-7.6702,6.956h0Z" fill="#0044b5"/>
        <path d="M55.3251,57.6572c.3962-.4026.7176-.8656,1.019-1.3347.1499-.2334.1896-.5291.074-.781-.417-.9091-1.8041-1.4302-3.2397-.6802-2.0829,1.059-5.0503,3.9924-8.3126,6.1398-.128.0842-.1137.2772.0287.3342.8112.3252,2.1992.6171,3.2873.8958.8618,0,4.5011-1.8884,7.1433-4.574h0Z" fill="#0044b5"/>
      </g>
      <path d="M7.9104,60.4535c1.1485-.528,5.0223-2.3133,5.5435-2.5565h0c2.1765-1.0031,5.7845-2.7434,8.1309-3.1604.1768-.0317.3614-.0585.545-.0861.0359-.0053.0706-.0117.1065-.017.1386-.02.281-.0366.4237-.0536.1122-.0136.2247-.0268.3392-.0381.1254-.0125.2519-.0238.3803-.0336.1488-.0117.3003-.0208.4528-.0291.1076-.0057.2138-.0121.3233-.0159.2587-.0087.5219-.0128.7916-.0098.0083,0,.0162-.0004.0245,0h.0034c.0295,0,.0604.0023.0899.0026.187.0038.3765.0106.5688.0204.0978.0049.1975.0121.2969.0189.1269.0087.2545.0193.3833.031.1163.0106.2326.0211.3505.034.1129.0125.2281.0283.3425.043.8524.1103,1.7513.2885,2.6981.551.0102.0026.02.0053.0302.0079.2077.0578.4185.1216.6311.1877.0366.0113.0736.023.1107.0351,1.3887.4411,2.9089,1.1153,4.4985,1.9715,3.7726,2.0315,6.7755,5.2164,11.1293,6.0552,3.1298.5918,11.3,2.7423,9.4721,7.6955-.9185,2.4979-2.9602,3.0796-5.5299,2.7166-.0189-.0026-.0378-.0045-.057-.0076-.1125-.0166-.2266-.0359-.341-.0559-.0823-.0143-.1647-.0291-.2481-.045-.0888-.0174-.1779-.0347-.2678-.054-.139-.0291-.2795-.0612-.4211-.0948-.0423-.0102-.0838-.0193-.1265-.0298-2.7438-.6738-5.911-2.1218-8.9112-3.3809-.0793-.0332-.159-.0669-.2379-.0997-.136-.0567-.2708-.1122-.406-.1681-.1428-.0589-.2851-.1171-.4268-.1749-.1118-.0453-.2236-.0906-.3346-.1352-.1677-.0672-.3342-.1326-.5-.1971-.0891-.0347-.1794-.0706-.2682-.1046-.253-.0971-.5042-.1919-.7516-.2814-.0019-.0008-.0038-.0015-.0057-.0023-.1613-.0585-.3233-.1156-.4853-.1711-.2455-.0846-.4906-.1639-.7334-.2398-.2311-.0721-.4611-.1416-.6855-.2043-1.0299-.2874-1.9624-.4596-2.5954-.423-.0042,0-.0087,0-.0128.0004-.0684.0042-.1299.0132-.1907.0227-.0261.0042-.0532.0072-.0778.0125-.048.0094-.0888.0238-.1314.037-.0363.0121-.0755.0223-.1073.037-.0132.0057-.0227.014-.0347.02-.162.0869-.2591.216-.2685.3996-.0597.9007,1.2358.8853,4.3927,1.9858,4.8346,1.6773,6.2596,2.9734,10.2761,4.2284,1.3883.4339,2.8665.8652,4.3096,1.0216.0249.0023.0495.0049.0744.0072.1681.0174.3358.0298.5023.0389.0313.0023.0627.0045.094.0057.1647.0076.3286.0087.4921.0072.0578-.0008.1152-.0023.1722-.0038.1564-.0049.312-.0128.4664-.0272.0427-.0038.0854-.0094.128-.0143.1397-.0155.278-.0351.4158-.0589.0521-.0091.1046-.0177.1564-.0279.1582-.0313.315-.0684.4702-.1122.045-.0128.0891-.0276.1341-.0415.1329-.0412.2648-.0869.3951-.1378.0378-.0147.0755-.0276.1133-.0434.1526-.0635.3021-.1363.4506-.2149.0446-.0238.0891-.0487.1333-.0737.1499-.085.298-.1752.443-.2772.0211-.0147.0412-.0321.0623-.0472.1307-.0944.2583-.1979.3845-.3071.1632-.1412.3233-.2916.4781-.4593h0c6.0216-2.5119,11.1482-6.7498,14.7565-12.092.3501-.5182.7943-.9714,1.3355-1.2841.2051-.1186.3969-.213.5707-.2776,3.6094-1.2811,6.0753,1.3936,4.5015,3.9301-4.8316,7.7669-12.2619,13.7896-21.0738,16.8258v.0076c-4.077,1.4031-8.4501,2.166-12.9988,2.166h-.0151c-.4241,0-.8467-.0064-1.2675-.0196-8.9418-.278-17.2042-3.3824-23.7485-8.5955v.0015c-.0204-.0162-.04-.0329-.0612-.0491h0c-4.3342-3.3862-7.8167-7.6456-10.3173-12.1721-.0733-.1329-.1549-.2836-.2372-.4381-.2908-.5461-.0631-1.2244.4993-1.4824h0l.0011.0011h0Z" fill="#0044b5"/>
    </g>
    <path d="M74.2439,79.3123c0-.4332.0812-.8377.2428-1.2131.162-.3754.3826-.6991.6624-.9706.2795-.2715.6046-.4853.9744-.6417.3701-.1564.7637-.2345,1.1806-.2345s.8101.0782,1.1802.2345c.3697.1564.6949.3701.9748.6417.2795.2715.5.5948.6621.9706.1616.3758.2428.7803.2428,1.2131,0,.4389-.0812.8445-.2428,1.2173-.162.3728-.3826.6949-.6621.9665-.2799.2715-.605.4853-.9748.6417-.3701.1564-.7637.2345-1.1802.2345s-.8105-.0782-1.1806-.2345c-.3697-.1564-.6949-.3701-.9744-.6417-.2798-.2715-.5004-.5937-.6624-.9665-.1616-.3728-.2428-.7788-.2428-1.2173ZM74.787,79.3123c0,.3731.0661.7183.1975,1.0363.1314.318.3093.5937.5344.8267.2251.233.491.417.7976.551.3071.1344.6364.2017.9872.2017s.6787-.0672.9831-.2017.5703-.318.7976-.551c.2277-.233.4071-.5083.5389-.8267.1314-.318.1971-.6636.1971-1.0363,0-.3675-.0661-.7115-.1971-1.0322-.1318-.3206-.3112-.5978-.5389-.8309s-.4936-.4166-.7976-.551c-.3044-.1344-.6322-.2017-.9831-.2017s-.6802.0672-.9872.2017c-.3067.1344-.5729.318-.7977.551-.2251.233-.403.5099-.5344.8309-.1318.3206-.1975.6647-.1975,1.0322ZM76.1361,77.5191h1.3487c.8335,0,1.2505.3399,1.2505,1.0201,0,.3237-.0903.5609-.2715.7115-.1809.1507-.4056.2398-.6745.2674l1.0284,1.5794h-.5839l-.9706-1.5383h-.5839v1.5383h-.5431s0-3.5785,0-3.5785ZM76.6792,79.1148h.559c.1205,0,.2387-.0042.3539-.0125s.2164-.0313.3044-.0699c.0876-.0381.159-.0986.2138-.1809s.0823-.1945.0823-.3373c0-.1205-.0245-.2179-.074-.2919-.0491-.074-.1122-.1303-.1888-.1688-.077-.0381-.162-.0631-.2553-.074s-.1862-.0166-.2795-.0166h-.7157v1.1519h0Z" fill="#0044b5"/>
  </g>
  <g>
    <path d="M94.0793,70.4181v-18.2642h3.4551l2.5947,13.3452,2.4385-13.3452h3.4766v18.2642h-2.4805v-6.8076l.1035-6.2471-2.459,12.9717h-2.21l-2.5635-12.9717.1035,6.2471v6.8076h-2.459Z" fill="#0044b5"/>
    <path d="M111.3264,70.5739c-1.0664,0-1.8047-.3877-2.2158-1.1626-.4121-.7744-.625-1.8018-.6387-3.082v-.9961c0-.8301.1191-1.5044.3584-2.0234.2383-.519.5791-.9409,1.0225-1.2661.4424-.3252.9717-.6089,1.5869-.8511.6162-.2417,1.3008-.5015,2.0547-.7783v-1.3594c0-.5254-.0205-.9458-.0615-1.2607-.042-.3149-.1348-.5449-.2803-.6899-.1455-.1455-.3701-.2183-.6748-.2183-.2979,0-.5244.0747-.6797.2231-.1553.1489-.2607.3774-.3164.6851-.0557.3081-.083.7007-.083,1.1777v.6953h-2.7188v-.4668c0-.7124.0605-1.3491.1816-1.9097.1211-.5601.3262-1.0356.6172-1.4268.291-.3906.6865-.6885,1.1885-.8926.501-.2036,1.1328-.3062,1.8936-.3062.6709,0,1.2451.0952,1.7227.2856s.8652.4736,1.1621.8511c.2979.377.5156.8491.6543,1.4165.1377.5669.207,1.228.207,1.9819v11.2178h-2.7705v-1.5464c-.083.2979-.2246.5762-.4258.8354-.2002.2598-.4512.4688-.752.6279s-.6455.2388-1.0322.2388ZM112.2805,68.4567c.3457,0,.623-.1245.8301-.3735.208-.249.3359-.5015.3838-.7573v-5.355c-.415.187-.7637.3618-1.0479.5244-.2832.1626-.5117.3408-.6846.5342-.1729.1938-.2979.4219-.374.6851-.0762.2627-.1143.5845-.1143.9648v1.7437c0,.7124.0742,1.2295.2236,1.5513.1484.3218.4102.4824.7832.4824Z" fill="#0044b5"/>
    <path d="M118.8606,70.4181v-15.5659h2.7705v1.7329c.1797-.6021.4932-1.0723.9395-1.4111s1.0146-.5088,1.707-.5088c.0137,0,.0225.1177.0254.353.0039.2354.0059.5049.0059.8096v1.1621c-.3184,0-.6631.0381-1.0332.1143s-.7051.1919-1.0068.3477c-.3008.1553-.5137.3613-.6377.6172v12.3491h-2.7705Z" fill="#0044b5"/>
    <path d="M130.9192,73.3757v-4.0161c-.1387.3394-.3877.6313-.7471.877-.3604.2456-.7539.3687-1.1836.3687-.8574,0-1.5117-.2251-1.9609-.6748-.4502-.4497-.7559-1.0654-.918-1.8472-.1631-.7817-.2441-1.667-.2441-2.6567v-5.8838c0-.9131.085-1.7344.2539-2.4644.1699-.73.4639-1.3096.8818-1.7383.4189-.4292,1.0049-.6436,1.7598-.6436.4355,0,.8545.1055,1.2549.3164.4014.2114.7021.5518.9033,1.0225v-1.1831h2.75v18.5234h-2.75ZM129.6838,68.384c.291,0,.5283-.0742.7109-.2227.1836-.1489.3164-.3999.3994-.7524.083-.353.125-.8335.125-1.4424v-6.5796c0-.8438-.0869-1.4697-.2598-1.8779s-.4873-.6123-.9443-.6123c-.4707,0-.7695.2231-.8975.6689-.1279.4463-.1914,1.0708-.1914,1.8735v6.4546c0,.7124.0547,1.3057.166,1.7798.1104.4736.4072.7104.8916.7104Z" fill="#0044b5"/>
    <path d="M139.0764,70.6154c-.6162,0-1.1299-.1387-1.541-.415-.4121-.2769-.7197-.6904-.9238-1.2402s-.3066-1.2402-.3066-2.0703v-12.0376h2.7607v11.6123c0,.5947.0723,1.0581.2178,1.3906.1455.332.4502.498.9131.498.4844,0,.8145-.1885.9912-.5659.1768-.377.2646-.811.2646-1.3022l.0107-11.6328h2.7393v15.5659h-2.75v-1.6187c-.1934.5254-.4736.9595-.8408,1.3022-.3662.3423-.8779.5137-1.5352.5137Z" fill="#0044b5"/>
    <path d="M150.5119,70.6052c-.7812,0-1.4229-.1245-1.9248-.374-.502-.249-.8926-.6084-1.1729-1.0791-.2803-.4702-.4756-1.0356-.5859-1.6968-.1104-.6606-.166-1.3989-.166-2.2153v-5.8008c0-.7266.0742-1.3838.2227-1.9717.1494-.5884.3809-1.0898.6953-1.5049.3154-.415.7246-.7349,1.2305-.96.5049-.2246,1.1133-.3374,1.8262-.3374.7266,0,1.3311.1108,1.8154.332.4844.2217.8672.5435,1.1475.9653s.4805.9287.6016,1.52c.1211.5918.1816,1.2612.1816,2.0083v3.3311h-4.9502v3.0615c0,.7539.0586,1.3594.1768,1.8159.1172.4565.4395.6846.9648.6846.3525,0,.6035-.1069.752-.3213.1494-.2144.2393-.5103.2705-.8872.0312-.3774.0469-.8081.0469-1.292v-1.3701h2.7188v.8301c0,.8374-.0508,1.5811-.1504,2.2314-.1006.6504-.2871,1.2002-.5605,1.6499s-.6631.792-1.168,1.0273c-.5049.2349-1.1621.353-1.9717.353ZM149.4231,61.2136h2.2207v-1.9927c0-.5186-.0244-.9561-.0732-1.3125-.0479-.3564-.1455-.6245-.29-.8042-.1455-.1802-.3672-.27-.6641-.27-.3672,0-.6348.1074-.8047.3218s-.2764.5068-.3213.877c-.0459.3701-.0674.7905-.0674,1.2607v1.9199Z" fill="#0044b5"/>
    <path d="M159.4992,70.5222c-.6641,0-1.1729-.085-1.5254-.2544-.3535-.1694-.5957-.4375-.7266-.8042-.1318-.3667-.1973-.8408-.1973-1.4219v-10.8755h-1.2656v-1.9922h1.2656v-3.02h2.75v3.02h1.5146v1.9922h-1.5146v10.3979c0,.2427.0381.4258.1143.5503s.2266.2075.4512.249.5586.062,1.002.062v2.0967h-1.8682Z" fill="#0044b5"/>
    <path d="M166.1203,70.5222c-.6641,0-1.1729-.085-1.5254-.2544-.3535-.1694-.5957-.4375-.7266-.8042-.1318-.3667-.1973-.8408-.1973-1.4219v-10.8755h-1.2656v-1.9922h1.2656v-3.02h2.75v3.02h1.5146v1.9922h-1.5146v10.3979c0,.2427.0381.4258.1143.5503s.2266.2075.4512.249.5586.062,1.002.062v2.0967h-1.8682Z" fill="#0044b5"/>
    <path d="M173.5608,70.6052c-.7812,0-1.4229-.1245-1.9248-.374-.502-.249-.8926-.6084-1.1729-1.0791-.2803-.4702-.4756-1.0356-.5859-1.6968-.1104-.6606-.166-1.3989-.166-2.2153v-5.8008c0-.7266.0742-1.3838.2227-1.9717.1494-.5884.3809-1.0898.6953-1.5049.3154-.415.7246-.7349,1.2305-.96.5049-.2246,1.1133-.3374,1.8262-.3374.7266,0,1.3311.1108,1.8154.332.4844.2217.8672.5435,1.1475.9653s.4805.9287.6016,1.52c.1211.5918.1816,1.2612.1816,2.0083v3.3311h-4.9502v3.0615c0,.7539.0586,1.3594.1768,1.8159.1172.4565.4395.6846.9648.6846.3525,0,.6035-.1069.752-.3213.1494-.2144.2393-.5103.2705-.8872.0312-.3774.0469-.8081.0469-1.292v-1.3701h2.7188v.8301c0,.8374-.0508,1.5811-.1504,2.2314-.1006.6504-.2871,1.2002-.5605,1.6499s-.6631.792-1.168,1.0273c-.5049.2349-1.1621.353-1.9717.353ZM172.4719,61.2136h2.2207v-1.9927c0-.5186-.0244-.9561-.0732-1.3125-.0479-.3564-.1455-.6245-.29-.8042-.1455-.1802-.3672-.27-.6641-.27-.3672,0-.6348.1074-.8047.3218s-.2764.5068-.3213.877c-.0459.3701-.0674.7905-.0674,1.2607v1.9199Z" fill="#0044b5"/>
    <path d="M187.301,70.6257c-.8857,0-1.623-.2041-2.2109-.6123s-1.0283-1.0049-1.3223-1.79c-.2949-.7852-.4414-1.7344-.4414-2.8486v-7.9595c0-.8369.0693-1.5908.207-2.2622.1387-.6709.3633-1.2451.6748-1.7227.3115-.4771.7266-.8438,1.2451-1.1001.5195-.2559,1.1592-.3838,1.9199-.3838.6914,0,1.2822.1128,1.7695.3374s.8857.5483,1.1934.9702.5322.9321.6748,1.5308c.1416.5981.2129,1.271.2129,2.0181v2.5117h-2.6885v-2.335c0-.8994-.0762-1.562-.2275-1.9873-.1523-.4258-.457-.6382-.9141-.6382-.5049,0-.8418.23-1.0117.6899-.1689.46-.2539,1.1021-.2539,1.9248v8.5303c0,.6367.0361,1.1572.1094,1.562.0723.4048.1953.7021.3682.8921.1729.1904.415.2856.7266.2856.4697,0,.7881-.2212.9541-.6641s.249-1.145.249-2.1069v-2.6147h2.7295v2.584c0,1.1553-.1348,2.1187-.4043,2.8901-.2705.7715-.6973,1.3472-1.2822,1.7275-.584.3804-1.3438.5708-2.2773.5708Z" fill="#0044b5"/>
    <path d="M197.2834,70.6052c-.7471,0-1.373-.1162-1.8779-.3477-.5049-.2319-.9043-.5674-1.1982-1.0068s-.5059-.9756-.6338-1.6084c-.1279-.6333-.1914-1.3545-.1914-2.1636v-5.8218c0-.9756.126-1.8384.3789-2.5894.252-.7505.666-1.3384,1.2402-1.7642.5742-.4253,1.335-.6382,2.2822-.6382.7197,0,1.3271.1211,1.8213.3633.4951.2422.8926.5864,1.1934,1.0327.3018.4463.5205.9736.6592,1.5825s.208,1.2798.208,2.0132v5.8218c0,.7954-.0605,1.5083-.1816,2.1377s-.3291,1.1675-.623,1.6138c-.2939.4458-.6904.7866-1.1885,1.022-.498.2349-1.127.353-1.8887.353ZM197.2834,68.384c.3115,0,.5469-.0947.7061-.2852s.2666-.4546.3213-.7939c.0557-.3389.083-.7295.083-1.1724v-6.9634c0-.4702-.0303-.875-.0928-1.2144-.0625-.3389-.1729-.6016-.332-.7886-.1592-.1865-.3877-.2803-.6855-.2803-.3105,0-.5479.0938-.71.2803-.1631.187-.2734.4497-.333.7886-.0586.3394-.0879.7441-.0879,1.2144v6.9634c0,.4429.0293.8335.0879,1.1724.0596.3394.1699.6035.333.7939.1621.1904.3994.2852.71.2852Z" fill="#0044b5"/>
    <path d="M206.344,70.6154c-.6162,0-1.1299-.1387-1.541-.415-.4121-.2769-.7197-.6904-.9238-1.2402s-.3066-1.2402-.3066-2.0703v-12.0376h2.7607v11.6123c0,.5947.0723,1.0581.2178,1.3906.1455.332.4502.498.9131.498.4844,0,.8145-.1885.9912-.5659.1768-.377.2646-.811.2646-1.3022l.0107-11.6328h2.7393v15.5659h-2.75v-1.6187c-.1934.5254-.4736.9595-.8408,1.3022-.3662.3423-.8779.5137-1.5352.5137Z" fill="#0044b5"/>
    <path d="M214.1477,70.4181v-15.5659h2.75v1.7847c.1387-.5327.4287-.9941.8721-1.3853.4424-.3906.9854-.5864,1.6289-.5864.8994,0,1.5742.2993,2.0234.8979.4502.5981.6748,1.4648.6748,2.5996v12.2554h-2.75v-12.0894c0-.4497-.1025-.8027-.3066-1.0586s-.4824-.3843-.835-.3843c-.2842,0-.5244.0781-.7217.2339-.1963.1553-.3438.3701-.4404.6431-.0967.2734-.1455.5933-.1455.96v11.6953h-2.75Z" fill="#0044b5"/>
    <path d="M227.5451,70.5222c-.6641,0-1.1729-.085-1.5254-.2544-.3535-.1694-.5957-.4375-.7266-.8042-.1318-.3667-.1973-.8408-.1973-1.4219v-10.8755h-1.2656v-1.9922h1.2656v-3.02h2.75v3.02h1.5146v1.9922h-1.5146v10.3979c0,.2427.0381.4258.1143.5503s.2266.2075.4512.249.5586.062,1.002.062v2.0967h-1.8682Z" fill="#0044b5"/>
    <path d="M230.9182,73.1681v-1.8989h.9023c.3047,0,.5605-.0259.7686-.0781.207-.0518.3242-.1641.3525-.3369.0479-.0903.0654-.251.0518-.4829-.0137-.2314-.0352-.4512-.0625-.6587l-2.4902-14.8604h2.6152l.9961,7.9595.415,4.1924h.2285l.373-4.1924.9131-7.9595h2.6055l-2.6982,16.23c-.0762.4912-.1816.8906-.3164,1.1987-.1348.3076-.3379.5327-.6074.6743-.2695.1421-.6436.2129-1.1211.2129h-2.9258Z" fill="#0044b5"/>
  </g>
</svg>