<svg viewBox="0 0 25 41" xmlns="http://www.w3.org/2000/svg">
  <!-- Definitions for gradients -->
  <defs>
    <linearGradient id="pinGradient" x1="0%" y1="0%" x2="100%" y2="100%">
      <stop offset="0%" stop-color="#0044b5" />
      <stop offset="100%" stop-color="#21296b" />
    </linearGradient>
  </defs>
  
  <!-- Pin body -->
  <path d="M12.5,1 
           C5.6,1 0,6.6 0,13.5 
           C0,18.75 8.75,30.5 12.5,40 
           C16.25,30.5 25,18.75 25,13.5 
           C25,6.6 19.4,1 12.5,1 z" 
        fill="#0044b5" />
        
  <!-- Same path with gradient fill -->
  <path d="M12.5,1 
           C5.6,1 0,6.6 0,13.5 
           C0,18.75 8.75,30.5 12.5,40 
           C16.25,30.5 25,18.75 25,13.5 
           C25,6.6 19.4,1 12.5,1 z" 
        fill="url(#pinGradient)" 
        stroke="rgba(0, 70, 139, 1)" 
        stroke-width="0.5" />
  
  <!-- Inner circle -->
  <circle cx="12.5" cy="13.5" r="6" fill="#21296b" stroke="#0044b5" stroke-width="0.5" />
  
  <!-- Highlight effect -->
  <circle cx="12.5" cy="13.5" r="5" fill="#a7d2ff" opacity="0.3" />
  
  <!-- Center dot -->
  <circle cx="12.5" cy="13.5" r="2" fill="#a7d2ff" />
</svg>
