<svg xmlns="http://www.w3.org/2000/svg" version="1.1" xmlns:xlink="http://www.w3.org/1999/xlink" xmlns:svgjs="http://svgjs.dev/svgjs" width="569" height="570.4"><svg xmlns="http://www.w3.org/2000/svg" version="1.1" viewBox="0 0 569 570.4">
  <defs>
    <style>
      .cls-1 {
        fill: #0346b5;
      }

      .cls-2 {
        fill: #fff;
      }

      .cls-3 {
        fill: #feba01;
      }

      .cls-4 {
        fill: #0245b5;
      }

      .cls-5 {
        fill: #0144b4;
      }

      .cls-6 {
        fill: #feba02;
      }

      .cls-7 {
        fill: #fc372c;
      }

      .cls-8 {
        fill: #fc382d;
      }
    </style>
  </defs>
  <!-- Generator: Adobe Illustrator 28.7.1, SVG Export Plug-In . SVG Version: 1.2.0 Build 142)  -->
  <g>
    <g id="SvgjsG1004">
      <circle class="cls-2" cx="285.2" cy="285.2" r="285.2"></circle>
      <g id="SvgjsG1003">
        <g>
          <path class="cls-5" d="M282.5,554.4c-67.5-.6-126.6-23.1-177.8-67-23.6-20.3-43.2-43.9-58.7-70.9-3.7-6.4-3.3-8,3.2-11.4,20.4-10.7,40.7-21.8,61.4-31.8,32.9-16,66.4-14.4,99.7-.8,12.6,5.1,24.4,11.9,35.7,19.4,10.9,7.3,21.9,14.4,33.1,21.1,11.2,6.7,24.2,8.3,36.6,11.5,15.4,4,30.4,9,42.7,19.8,14.2,12.5,12.6,33.6-3.1,43.5-7.8,4.8-16.4,4.8-25,3.7-16-2.1-30.7-8.3-45.5-14.2-18.3-7.3-36.5-14.8-55-21.5-6.1-2.2-12.9-2.6-19.4-3.6-2.3-.3-5,0-5.6,3.1-.6,3.1,1.5,4.6,4,5.5,9.1,3,18.4,5.4,27.3,9,17.1,6.9,33.8,14.6,50.9,21.7,14.8,6.1,30,11,46,12.8,13.2,1.5,25.3-1.2,35.2-10.9.9-.9,2.2-1.6,3.5-2.1,39.5-17.3,71.6-43.7,96-79.3,7.6-11,18-15.1,30.8-12.9,14.4,2.4,20.2,15.8,12.6,28.3-9.1,14.7-19.5,28.4-31.4,41-37.7,40.1-83.2,66.7-136.8,79.3-19.8,4.6-39.8,6.9-60.2,6.8h0Z"></path>
          <path class="cls-3" d="M16,287c1.2-71.2,24.2-131.9,70.8-183.2C124.6,62.4,170.8,34.7,225.6,22.9c85.6-18.4,163.1-.1,231,55.3,47.3,38.6,77.5,88.4,90.9,148,12.5,55.2,7.6,109.3-13.7,161.8-.6,1.4-1.2,2.8-1.9,4-1.4,2.3-3.4,3.1-6.1,2-10.5-4.6-21.1-9.1-31.5-13.8-3.5-1.5-3.9-3.5-2.1-7.8,6.3-15.2,11.2-30.9,14-47.2,11.4-68.5-4.5-130.1-48.7-183.7-34.9-42.3-79.9-68.9-134.1-77.5-80.6-12.7-149.5,11.4-205.1,71.2-28.9,31.1-46.6,68.2-54.2,109.9-7.1,39.6-3.9,78.5,9.8,116.4,2.3,6.3,2.1,6.8-4,9.6-9.5,4.4-19,8.8-28.5,13.2-4.3,2-5.7,1.5-7.4-3-8.9-23.3-14.7-47.3-16.7-72.2-.6-8.1-1-16.2-1.4-22.2h0Z"></path>
          <path class="cls-6" d="M281.8,78c99.8,0,184.5,67.5,205.4,160.9,9.7,43.2,6.1,85.5-11,126.4-2.2,5.4-3.2,5.7-8.4,3.4-4.8-2.1-9.6-4.3-14.3-6.4-4-1.8-4.5-2.8-2.7-6.9,6.6-15.7,11.1-32,13-49,4.8-42.9-4-82.8-27.7-118.8-28.6-43.6-68.8-71.3-120.5-79.3-70.3-11-128.3,12.4-172.9,67.8-20.3,25.2-31.8,54.6-35.8,86.7-3.5,27.6-.7,54.8,8.4,81.1,1.7,5,1.5,5.6-3.2,7.8-5,2.4-9.9,4.7-14.9,7-4,1.9-5,1.4-6.6-2.9-6-16.2-9.9-33-11.5-50.1-3.4-35.7,1.4-70.3,16.3-103,29.6-64.7,79.3-104.9,148.9-120.4,5.8-1.3,11.8-2.2,17.7-2.8,7.8-.8,15.7-1.1,19.8-1.4h0Z"></path>
          <path class="cls-6" d="M447.3,285.6c-.2,21.4-4.4,41.9-12.5,61.6-2.1,5.2-3.2,5.6-8.5,3.4-3.2-1.4-6.4-2.8-9.6-4.1-3.4-1.4-3.5-3.5-2.3-6.6,4.6-10.8,7.8-22.1,9.4-33.7,5.3-37.8-2.8-72.5-25.3-103.4-22.1-30.4-52.1-48.9-89.1-55.8-65-12.2-132.7,26.5-155.6,88.9-11.2,30.7-12,61.6-2.2,92.8,1,3.2.3,4.9-2.7,6.2-3.7,1.6-7.2,3.4-10.9,5-3.7,1.7-4.9,1.1-6.3-2.9-4.3-12.6-7-25.5-7.9-38.7-3.1-44.1,9.2-83.4,37.7-117.3,26.5-31.4,60.3-50.6,101.1-55.8,56.5-7.3,104.5,10.4,143,52.3,23.8,25.9,37,56.8,40.5,91.8.5,5.5.7,10.9,1.1,16.4h0Z"></path>
          <path class="cls-7" d="M264.6,336c0-8.9-.2-17.7,0-26.6.4-12.2-4.5-22.1-12.7-30.5-18.8-19-37.8-37.8-56.7-56.6-6.5-6.5-6.5-11.5,0-17.9,2.8-2.7,5.5-5.4,8.2-8.2,5.5-5.4,10.9-5.5,16.3,0,17.3,17.3,34.9,34.3,51.8,52,7.8,8.1,19.6,8.4,27.6,0,16.8-17.4,34.1-34.4,51.2-51.5,6.2-6.2,11.2-6.2,17.4-.1,2.8,2.8,5.7,5.6,8.5,8.5,5.3,5.4,5.4,11,0,16.3-18.5,18.5-37,37.1-55.6,55.6-9.7,9.7-15.2,20.8-14.7,35,.6,18,.2,35.9.1,53.9,0,7.9-3.8,11.7-11.7,11.7-6,0-12,0-18,0-8,0-11.7-3.7-11.7-11.6,0-10,0-20,0-29.9h0Z"></path>
          <path class="cls-4" d="M379.8,473.3c2.5-12.7-.6-23.6-8.7-33.4,2.3-1.5,4.4-2.9,6.5-4.2,18-11.4,33.3-25.8,45.4-43.4,7.2-10.4,19-14.6,29.6-10.5,3,1.2,5.8,3.4,7.9,5.9,3.5,4.1,3.4,7,.5,11.5-19.7,30.6-45.5,54.7-77.4,72.2-1.1.6-2.2,1.1-3.9,1.9h0Z"></path>
          <path class="cls-8" d="M285.4,226.8c-15.9,0-28.8-12.9-28.8-28.7,0-16,13-29,29-28.9,15.8,0,28.7,13.1,28.7,28.9,0,15.8-13,28.7-28.9,28.7h0Z"></path>
          <path class="cls-4" d="M331.9,418c20.6-8,36.7-21.5,49.2-39.8,6-8.8,14.4-14.2,25.7-12.9,1.9.2,3.9.8,5.7,1.6,7.1,3.3,8.1,7,3.7,13.4-13.7,19.9-30.9,36.1-51.5,48.8-2.6,1.6-4.3,1.3-7,0-8.4-4-17.1-7.5-25.8-11.3h0Z"></path>
          <path class="cls-1" d="M293.9,406.2c2-1.5,4-2.8,5.9-4.2,13.4-10.3,26.6-20.6,40-30.8,5.5-4.1,10.9-8.5,18.1-9,2.8-.2,5.8.2,8.4,1.2,6.7,2.7,7.9,7.5,3.7,13.3-8.3,11.4-19.5,19.6-31.3,27-5.4,3.4-11.2,6-16.9,8.9-1.3.7-3,1.4-4.3,1.1-7.7-1.9-15.3-4.1-23-6.2-.2,0-.2-.4-.7-1.1h0Z"></path>
        </g>
      </g>
    </g>
  </g>
</svg><style>@media (prefers-color-scheme: light) { :root { filter: none; } }
@media (prefers-color-scheme: dark) { :root { filter: none; } }
</style></svg>